# xmcd
#
# Track frame offsets: 
#        150
#        18378
#        36524
#        56167
#        69998
#        86913
#        107832
#        123158
#        143189
#        162625
#        176194
#        192699
#        208389
#        222165
#        235405
#        251822
#        271962
#
# Disc length: 3844 seconds
#
# Revision: 0
# Processed by: cddbd v1.5.2PL0 Copyright (c) Steve Scherf et al.
# Submitted via: ExactAudioCopy v1.2
#
DISCID=160f0211
DTITLE=Charlie Landsborough - Under Blue Skies
DYEAR=2008
DGENRE=Country
TTITLE0=Speak To Me Darling
TTITLE1=Your Love Is Beautiful
TTITLE2=Speed Of The Sound Of Loneliness
TTITLE3=Here, There And Everywhere
TTITLE4=Long Way Down
TTITLE5=Fog On The River
TTITLE6=Bullet In Your Gun
TTITLE7=I Can't Make You Love Me
TTITLE8=Early Morning Rain
TTITLE9=Some Mothers Son
TTITLE10=Broken
TTITLE11=Long Way To Go
TTITLE12=Moon River
TTITLE13=Good For My Heart
TTITLE14=Growing Old
TTITLE15=Cotton Jenny
TTITLE16=You Don't Know Me
EXTD=
EXTT0=
EXTT1=
EXTT2=
EXTT3=
EXTT4=
EXTT5=
EXTT6=
EXTT7=
EXTT8=
EXTT9=
EXTT10=
EXTT11=
EXTT12=
EXTT13=
EXTT14=
EXTT15=
EXTT16=
PLAYORDER=
